<svg width="60" height="60" viewBox="0 0 60 60" fill="none" xmlns="http://www.w3.org/2000/svg">
<path d="M59.4282 54.7091L32.6932 2.182C31.9532 0.727001 30.9772 0 30.0002 0C29.0232 0 28.0472 0.728001 27.3072 2.183L0.572146 54.7091C-0.909856 57.6211 0.588146 60.0001 3.90015 60.0001H56.0972C59.4102 60.0001 60.9102 57.6211 59.4282 54.7091ZM57.8732 57.3731C57.6332 57.7661 56.9692 58.0001 56.0982 58.0001H3.90015C3.03015 58.0001 2.36615 57.7681 2.12615 57.3751C1.89815 57.0021 1.98315 56.3461 2.35515 55.6171L29.0892 3.089C29.5236 2.23731 30.4772 2.23811 30.9112 3.09L57.6452 55.6181C58.0162 56.3461 58.1022 57.0021 57.8732 57.3731Z" fill="#F53F33"/>
<path d="M28.5511 40.0518C28.8261 41.8918 31.1741 41.8918 31.4491 40.0518L34.1971 21.5877C34.7031 14.3887 25.2931 14.3887 25.8011 21.5877L28.5511 40.0518Z" fill="#F53F33"/>
<path d="M30.0003 51.8134C32.3303 51.8134 34.2193 49.9299 34.2193 47.6064C34.2193 45.283 32.3303 43.3994 30.0003 43.3994C27.6702 43.3994 25.7812 45.283 25.7812 47.6064C25.7812 49.9299 27.6702 51.8134 30.0003 51.8134Z" fill="#F53F33"/>
</svg>
