<svg width="35" height="32" viewBox="0 0 35 32" fill="none" xmlns="http://www.w3.org/2000/svg">
<path d="M32.8125 2.99367L24.0548 2.9937V1.00023C24.0548 0.447605 23.5654 0 22.9611 0C22.3568 0 21.8673 0.447605 21.8673 1.00023V2.9932H13.1173V1.00023C13.1173 0.447605 12.6279 0 12.0236 0C11.4193 0 10.9298 0.447605 10.9298 1.00023V2.9932H2.1875C0.979453 2.9932 0 3.88891 0 4.99367V29.9995C0 31.1043 0.979453 32 2.1875 32H32.8125C34.0205 32 35 31.1043 35 29.9995V4.99367C35 3.88938 34.0205 2.99367 32.8125 2.99367ZM32.8125 29.9995H2.1875V4.99367H10.9298V6.00141C10.9298 6.554 11.4193 7.00164 12.0236 7.00164C12.6279 7.00164 13.1173 6.554 13.1173 6.00141V4.99417H21.8673V6.00191C21.8673 6.55454 22.3568 7.00214 22.9611 7.00214C23.5654 7.00214 24.0548 6.55454 24.0548 6.00191V4.99417H32.8125V29.9995ZM25.1562 15.9967H27.3438C27.9475 15.9967 28.4375 15.5486 28.4375 14.9965V12.996C28.4375 12.4439 27.9475 11.9958 27.3438 11.9958H25.1562C24.5525 11.9958 24.0625 12.4439 24.0625 12.996V14.9965C24.0625 15.5486 24.5525 15.9967 25.1562 15.9967ZM25.1562 23.9981H27.3438C27.9475 23.9981 28.4375 23.5505 28.4375 22.9979V20.9974C28.4375 20.4453 27.9475 19.9972 27.3438 19.9972H25.1562C24.5525 19.9972 24.0625 20.4453 24.0625 20.9974V22.9979C24.0625 23.551 24.5525 23.9981 25.1562 23.9981ZM18.5938 19.9972H16.4062C15.8025 19.9972 15.3125 20.4453 15.3125 20.9974V22.9979C15.3125 23.5505 15.8025 23.9981 16.4062 23.9981H18.5938C19.1975 23.9981 19.6875 23.5505 19.6875 22.9979V20.9974C19.6875 20.4458 19.1975 19.9972 18.5938 19.9972ZM18.5938 11.9958H16.4062C15.8025 11.9958 15.3125 12.4439 15.3125 12.996V14.9965C15.3125 15.5486 15.8025 15.9967 16.4062 15.9967H18.5938C19.1975 15.9967 19.6875 15.5486 19.6875 14.9965V12.996C19.6875 12.4434 19.1975 11.9958 18.5938 11.9958ZM9.84375 11.9958H7.65625C7.0525 11.9958 6.5625 12.4439 6.5625 12.996V14.9965C6.5625 15.5486 7.0525 15.9967 7.65625 15.9967H9.84375C10.4475 15.9967 10.9375 15.5486 10.9375 14.9965V12.996C10.9375 12.4434 10.4475 11.9958 9.84375 11.9958ZM9.84375 19.9972H7.65625C7.0525 19.9972 6.5625 20.4453 6.5625 20.9974V22.9979C6.5625 23.5505 7.0525 23.9981 7.65625 23.9981H9.84375C10.4475 23.9981 10.9375 23.5505 10.9375 22.9979V20.9974C10.9375 20.4458 10.4475 19.9972 9.84375 19.9972Z" fill="black"/>
</svg>
