<svg width="17" height="17" viewBox="0 0 17 17" fill="none" xmlns="http://www.w3.org/2000/svg">
<path d="M8.215 0C12.752 0 16.43 3.67798 16.43 8.215C16.43 12.752 12.752 16.43 8.215 16.43C3.67798 16.43 0 12.752 0 8.215C0 3.67798 3.67798 0 8.215 0ZM8.215 1.02688C4.24511 1.02688 1.02688 4.24511 1.02688 8.215C1.02688 12.1849 4.24511 15.4031 8.215 15.4031C12.1849 15.4031 15.4031 12.1849 15.4031 8.215C15.4031 4.24511 12.1849 1.02688 8.215 1.02688ZM8.215 10.5255C8.61199 10.5255 8.93381 10.8473 8.93381 11.2443C8.93381 11.6413 8.61199 11.9631 8.215 11.9631C7.81801 11.9631 7.49619 11.6413 7.49619 11.2443C7.49619 10.8473 7.81801 10.5255 8.215 10.5255ZM8.215 4.62094C9.34925 4.62094 10.2688 5.54043 10.2688 6.67469C10.2688 7.63151 9.61443 8.43551 8.72883 8.66364L8.72844 9.24187C8.72844 9.52544 8.49856 9.75531 8.215 9.75531C7.93144 9.75531 7.70156 9.52544 7.70156 9.24187V8.215C7.70156 7.93144 7.93144 7.70156 8.215 7.70156C8.78213 7.70156 9.24187 7.24182 9.24187 6.67469C9.24187 6.10756 8.78213 5.64781 8.215 5.64781C7.64787 5.64781 7.18813 6.10756 7.18813 6.67469C7.18813 6.95825 6.95825 7.18813 6.67469 7.18813C6.39112 7.18813 6.16125 6.95825 6.16125 6.67469C6.16125 5.54043 7.08075 4.62094 8.215 4.62094Z" fill="black"/>
</svg>
