<svg width="23" height="19" viewBox="0 0 23 19" fill="none" xmlns="http://www.w3.org/2000/svg">
<path fill-rule="evenodd" clip-rule="evenodd" d="M0 17.0378C0 16.7046 0.098619 16.3851 0.274162 16.1495C0.449704 15.9139 0.687791 15.7815 0.936046 15.7815H6.55232C6.80058 15.7815 7.03866 15.9139 7.21421 16.1495C7.38975 16.3851 7.48837 16.7046 7.48837 17.0378C7.48837 17.371 7.38975 17.6905 7.21421 17.9261C7.03866 18.1617 6.80058 18.2941 6.55232 18.2941H0.936046C0.687791 18.2941 0.449704 18.1617 0.274162 17.9261C0.098619 17.6905 0 17.371 0 17.0378ZM0 9.50001C0 9.16682 0.098619 8.84728 0.274162 8.61167C0.449704 8.37607 0.687791 8.24371 0.936046 8.24371H14.0407C14.2889 8.24371 14.527 8.37607 14.7026 8.61167C14.8781 8.84728 14.9767 9.16682 14.9767 9.50001C14.9767 9.8332 14.8781 10.1527 14.7026 10.3883C14.527 10.6239 14.2889 10.7563 14.0407 10.7563H0.936046C0.687791 10.7563 0.449704 10.6239 0.274162 10.3883C0.098619 10.1527 0 9.8332 0 9.50001ZM0 1.96223C0 1.62904 0.098619 1.3095 0.274162 1.07389C0.449704 0.838292 0.687791 0.705933 0.936046 0.705933H21.5291C21.7773 0.705933 22.0154 0.838292 22.1909 1.07389C22.3665 1.3095 22.4651 1.62904 22.4651 1.96223C22.4651 2.29542 22.3665 2.61496 22.1909 2.85057C22.0154 3.08617 21.7773 3.21853 21.5291 3.21853H0.936046C0.687791 3.21853 0.449704 3.08617 0.274162 2.85057C0.098619 2.61496 0 2.29542 0 1.96223Z" fill="#03655F"/>
</svg>
